<?xml version="1.0" standalone="no"?>
<!DOCTYPE svg PUBLIC "-//W3C//DTD SVG 20010904//EN"
 "http://www.w3.org/TR/2001/REC-SVG-20010904/DTD/svg10.dtd">
<svg version="1.0" xmlns="http://www.w3.org/2000/svg"
 width="512.000000pt" height="512.000000pt" viewBox="0 0 512.000000 512.000000"
 preserveAspectRatio="xMidYMid meet">
<metadata>
Created by potrace 1.14, written by Peter Selinger 2001-2017
</metadata>
<g transform="translate(0.000000,512.000000) scale(0.100000,-0.100000)"
fill="#000000" stroke="none">
<path d="M2320 5110 c-312 -33 -603 -115 -878 -250 -276 -135 -458 -266 -687
-495 -229 -229 -360 -411 -495 -687 -423 -866 -324 -1886 259 -2663 94 -125
306 -343 430 -443 208 -168 488 -326 736 -418 129 -47 367 -107 520 -130 146
-22 530 -26 670 -6 294 42 553 120 800 242 291 143 458 263 690 495 232 232
353 399 495 690 161 327 242 652 257 1023 22 583 -160 1159 -520 1641 -92 123
-364 396 -487 488 -357 266 -749 430 -1190 498 -124 19 -477 28 -600 15z m478
-321 c769 -83 1434 -550 1772 -1244 107 -219 169 -418 206 -665 24 -158 24
-473 0 -630 -84 -550 -347 -1032 -751 -1380 -212 -182 -421 -307 -678 -406
-98 -38 -134 -41 -177 -19 -59 30 -60 38 -60 442 0 398 -6 453 -54 560 -14 30
-40 72 -57 94 -17 21 -26 39 -21 39 42 0 258 45 338 71 184 58 308 133 419
251 116 123 184 261 226 459 32 152 33 438 1 554 -28 101 -88 225 -147 300
-25 32 -45 62 -45 66 0 4 7 38 16 76 32 130 19 310 -32 467 l-16 49 -82 -6
c-122 -8 -277 -70 -464 -185 l-63 -38 -102 23 c-319 72 -650 70 -957 -7 l-75
-18 -64 40 c-175 110 -343 177 -467 185 l-82 6 -16 -49 c-53 -162 -65 -339
-32 -472 l18 -72 -42 -56 c-113 -149 -169 -308 -177 -504 -10 -234 30 -451
119 -630 46 -93 63 -116 152 -205 86 -85 116 -108 201 -152 147 -75 300 -121
498 -148 l48 -6 -34 -47 c-49 -66 -66 -103 -86 -185 l-18 -72 -64 -24 c-55
-21 -81 -25 -189 -25 -120 -1 -127 0 -192 31 -79 37 -148 103 -207 195 -96
152 -262 253 -382 233 -93 -16 -88 -53 16 -130 128 -95 170 -152 269 -365 92
-200 334 -312 607 -281 52 6 104 14 117 17 l22 6 0 -199 c0 -213 -6 -252 -45
-277 -53 -35 -93 -31 -220 19 -144 57 -208 89 -340 168 -514 309 -888 824
-1025 1412 -57 245 -72 578 -36 820 70 477 275 896 606 1239 128 132 221 211
366 308 288 195 650 328 994 367 110 12 376 13 488 0z"/>
</g>
</svg>
